<svg width="65" height="72" viewBox="0 0 65 72" fill="none" xmlns="http://www.w3.org/2000/svg">
<path d="M1.464 65.7047C1.216 65.7047 1.016 65.6487 0.864 65.5367C0.72 65.4247 0.648 65.2927 0.648 65.1407V57.4967C0.648 57.3447 0.72 57.2127 0.864 57.1007C1.016 56.9887 1.216 56.9327 1.464 56.9327H3.588C4.14 56.9327 4.64 57.0247 5.088 57.2087C5.536 57.3927 5.888 57.6927 6.144 58.1087C6.408 58.5247 6.54 59.0767 6.54 59.7647V62.8727C6.54 63.5607 6.408 64.1127 6.144 64.5287C5.888 64.9447 5.536 65.2447 5.088 65.4287C4.64 65.6127 4.14 65.7047 3.588 65.7047H1.464ZM2.52 64.0727H3.588C3.924 64.0727 4.188 63.9767 4.38 63.7847C4.572 63.5847 4.668 63.2807 4.668 62.8727V59.7647C4.668 59.3567 4.572 59.0567 4.38 58.8647C4.188 58.6647 3.924 58.5647 3.588 58.5647H2.52V64.0727ZM8.54213 65.7047C8.34213 65.7047 8.15413 65.6567 7.97813 65.5607C7.81013 65.4647 7.72613 65.3207 7.72613 65.1287V57.5087C7.72613 57.3167 7.81013 57.1727 7.97813 57.0767C8.15413 56.9807 8.34213 56.9327 8.54213 56.9327H12.8141C13.0141 56.9327 13.1581 57.0207 13.2461 57.1967C13.3341 57.3647 13.3781 57.5447 13.3781 57.7367C13.3781 57.9607 13.3301 58.1567 13.2341 58.3247C13.1381 58.4847 12.9981 58.5647 12.8141 58.5647H9.59813V60.5927H11.3981C11.5821 60.5927 11.7221 60.6687 11.8181 60.8207C11.9141 60.9647 11.9621 61.1327 11.9621 61.3247C11.9621 61.4847 11.9181 61.6447 11.8301 61.8047C11.7421 61.9567 11.5981 62.0327 11.3981 62.0327H9.59813V64.0727H12.8141C12.9981 64.0727 13.1381 64.1567 13.2341 64.3247C13.3301 64.4847 13.3781 64.6767 13.3781 64.9007C13.3781 65.0927 13.3341 65.2767 13.2461 65.4527C13.1581 65.6207 13.0141 65.7047 12.8141 65.7047H8.54213ZM15.0109 65.7047C14.8109 65.7047 14.6229 65.6567 14.4469 65.5607C14.2789 65.4647 14.1949 65.3207 14.1949 65.1287V57.5087C14.1949 57.3167 14.2789 57.1727 14.4469 57.0767C14.6229 56.9807 14.8109 56.9327 15.0109 56.9327H19.2829C19.4829 56.9327 19.6269 57.0207 19.7149 57.1967C19.8029 57.3647 19.8469 57.5447 19.8469 57.7367C19.8469 57.9607 19.7989 58.1567 19.7029 58.3247C19.6069 58.4847 19.4669 58.5647 19.2829 58.5647H16.0669V60.5927H17.8669C18.0509 60.5927 18.1909 60.6687 18.2869 60.8207C18.3829 60.9647 18.4309 61.1327 18.4309 61.3247C18.4309 61.4847 18.3869 61.6447 18.2989 61.8047C18.2109 61.9567 18.0669 62.0327 17.8669 62.0327H16.0669V64.0727H19.2829C19.4669 64.0727 19.6069 64.1567 19.7029 64.3247C19.7989 64.4847 19.8469 64.6767 19.8469 64.9007C19.8469 65.0927 19.8029 65.2767 19.7149 65.4527C19.6269 65.6207 19.4829 65.7047 19.2829 65.7047H15.0109ZM21.5996 65.7047C21.3676 65.7047 21.1516 65.6567 20.9516 65.5607C20.7596 65.4647 20.6636 65.3207 20.6636 65.1287V57.4967C20.6636 57.3447 20.7276 57.2127 20.8556 57.1007C20.9836 56.9887 21.1516 56.9327 21.3596 56.9327H23.8436C24.3716 56.9327 24.8476 57.0247 25.2716 57.2087C25.7036 57.3847 26.0436 57.6767 26.2916 58.0847C26.5476 58.4847 26.6756 59.0207 26.6756 59.6927V59.7527C26.6756 60.4247 26.5436 60.9647 26.2796 61.3727C26.0236 61.7807 25.6716 62.0767 25.2236 62.2607C24.7756 62.4447 24.2756 62.5367 23.7236 62.5367H22.5356V65.1287C22.5356 65.3207 22.4356 65.4647 22.2356 65.5607C22.0436 65.6567 21.8316 65.7047 21.5996 65.7047ZM22.5356 61.0967H23.7236C24.0596 61.0967 24.3236 61.0007 24.5156 60.8087C24.7076 60.6087 24.8036 60.3047 24.8036 59.8967V59.7647C24.8036 59.3567 24.7076 59.0567 24.5156 58.8647C24.3236 58.6647 24.0596 58.5647 23.7236 58.5647H22.5356V61.0967ZM32.37 65.8247C31.85 65.8247 31.37 65.7487 30.93 65.5967C30.49 65.4447 30.138 65.2527 29.874 65.0207C29.61 64.7807 29.478 64.5287 29.478 64.2647C29.478 64.1287 29.514 63.9847 29.586 63.8327C29.658 63.6727 29.754 63.5367 29.874 63.4247C30.002 63.3127 30.142 63.2567 30.294 63.2567C30.438 63.2567 30.57 63.3007 30.69 63.3887C30.818 63.4767 30.954 63.5807 31.098 63.7007C31.25 63.8207 31.422 63.9247 31.614 64.0127C31.814 64.1007 32.054 64.1447 32.334 64.1447C32.518 64.1447 32.698 64.1207 32.874 64.0727C33.058 64.0167 33.206 63.9327 33.318 63.8207C33.438 63.7007 33.498 63.5447 33.498 63.3527C33.498 63.1447 33.43 62.9687 33.294 62.8247C33.158 62.6727 32.974 62.5367 32.742 62.4167C32.518 62.2967 32.27 62.1767 31.998 62.0567C31.734 61.9287 31.466 61.7927 31.194 61.6487C30.922 61.4967 30.67 61.3207 30.438 61.1207C30.214 60.9127 30.034 60.6647 29.898 60.3767C29.762 60.0887 29.694 59.7447 29.694 59.3447C29.694 58.8967 29.782 58.5167 29.958 58.2047C30.134 57.8847 30.37 57.6287 30.666 57.4367C30.962 57.2367 31.29 57.0927 31.65 57.0047C32.018 56.9087 32.39 56.8607 32.766 56.8607C32.926 56.8607 33.138 56.8727 33.402 56.8967C33.666 56.9207 33.93 56.9687 34.194 57.0407C34.466 57.1127 34.694 57.2207 34.878 57.3647C35.062 57.5007 35.154 57.6847 35.154 57.9167C35.154 58.0207 35.126 58.1527 35.07 58.3127C35.022 58.4647 34.942 58.6007 34.83 58.7207C34.726 58.8407 34.586 58.9007 34.41 58.9007C34.266 58.9007 34.13 58.8647 34.002 58.7927C33.882 58.7127 33.726 58.6367 33.534 58.5647C33.35 58.4847 33.094 58.4447 32.766 58.4447C32.486 58.4447 32.254 58.4807 32.07 58.5527C31.894 58.6167 31.766 58.7047 31.686 58.8167C31.606 58.9207 31.566 59.0367 31.566 59.1647C31.566 59.3327 31.634 59.4807 31.77 59.6087C31.906 59.7287 32.086 59.8447 32.31 59.9567C32.542 60.0607 32.79 60.1727 33.054 60.2927C33.326 60.4047 33.598 60.5407 33.87 60.7007C34.142 60.8527 34.39 61.0367 34.614 61.2527C34.846 61.4687 35.03 61.7327 35.166 62.0447C35.302 62.3567 35.37 62.7287 35.37 63.1607C35.37 63.7367 35.238 64.2247 34.974 64.6247C34.718 65.0167 34.366 65.3167 33.918 65.5247C33.47 65.7247 32.954 65.8247 32.37 65.8247ZM39.1404 65.7767C38.5884 65.7767 38.0884 65.6847 37.6404 65.5007C37.2004 65.3167 36.8484 65.0167 36.5844 64.6007C36.3284 64.1847 36.2004 63.6327 36.2004 62.9447V59.7647C36.2004 59.0767 36.3284 58.5247 36.5844 58.1087C36.8484 57.6927 37.2004 57.3927 37.6404 57.2087C38.0884 57.0247 38.5884 56.9327 39.1404 56.9327C39.6924 56.9327 40.1924 57.0247 40.6404 57.2087C41.0884 57.3927 41.4404 57.6927 41.6964 58.1087C41.9604 58.5247 42.0924 59.0767 42.0924 59.7647V62.9447C42.0924 63.6327 41.9604 64.1847 41.6964 64.6007C41.4404 65.0167 41.0884 65.3167 40.6404 65.5007C40.1924 65.6847 39.6924 65.7767 39.1404 65.7767ZM39.1404 64.1447C39.4764 64.1447 39.7404 64.0487 39.9324 63.8567C40.1244 63.6647 40.2204 63.3607 40.2204 62.9447V59.7647C40.2204 59.3487 40.1244 59.0447 39.9324 58.8527C39.7404 58.6607 39.4764 58.5647 39.1404 58.5647C38.8044 58.5647 38.5404 58.6607 38.3484 58.8527C38.1644 59.0447 38.0724 59.3487 38.0724 59.7647V62.9447C38.0724 63.3607 38.1644 63.6647 38.3484 63.8567C38.5404 64.0487 38.8044 64.1447 39.1404 64.1447ZM46.2805 65.7767C45.7125 65.7767 45.2005 65.6847 44.7445 65.5007C44.2885 65.3167 43.9245 65.0167 43.6525 64.6007C43.3885 64.1847 43.2565 63.6327 43.2565 62.9447V57.4967C43.2565 57.2967 43.3525 57.1527 43.5445 57.0647C43.7365 56.9767 43.9525 56.9327 44.1925 56.9327C44.4245 56.9327 44.6365 56.9767 44.8285 57.0647C45.0285 57.1527 45.1285 57.2967 45.1285 57.4967V62.9447C45.1285 63.3527 45.2285 63.6567 45.4285 63.8567C45.6365 64.0487 45.9205 64.1447 46.2805 64.1447C46.6405 64.1447 46.9205 64.0487 47.1205 63.8567C47.3285 63.6567 47.4325 63.3527 47.4325 62.9447V57.4967C47.4325 57.2967 47.5285 57.1527 47.7205 57.0647C47.9125 56.9767 48.1285 56.9327 48.3685 56.9327C48.6005 56.9327 48.8125 56.9767 49.0045 57.0647C49.2045 57.1527 49.3045 57.2967 49.3045 57.4967V62.9447C49.3045 63.6327 49.1685 64.1847 48.8965 64.6007C48.6325 65.0167 48.2725 65.3167 47.8165 65.5007C47.3605 65.6847 46.8485 65.7767 46.2805 65.7767ZM51.5059 65.7047C51.2739 65.7047 51.0579 65.6567 50.8579 65.5607C50.6659 65.4647 50.5699 65.3207 50.5699 65.1287V57.5087C50.5699 57.3087 50.6659 57.1647 50.8579 57.0767C51.0579 56.9807 51.2739 56.9327 51.5059 56.9327C51.7299 56.9327 51.9139 56.9527 52.0579 56.9927C52.2099 57.0247 52.3459 57.1047 52.4659 57.2327C52.5939 57.3607 52.7339 57.5727 52.8859 57.8687L54.8299 61.5767V57.4967C54.8299 57.2967 54.9259 57.1527 55.1179 57.0647C55.3179 56.9767 55.5339 56.9327 55.7659 56.9327C55.9979 56.9327 56.2099 56.9767 56.4019 57.0647C56.6019 57.1527 56.7019 57.2967 56.7019 57.4967V65.1287C56.7019 65.3207 56.6019 65.4647 56.4019 65.5607C56.2099 65.6567 55.9979 65.7047 55.7659 65.7047C55.5499 65.7047 55.3499 65.6727 55.1659 65.6087C54.9819 65.5447 54.8339 65.4087 54.7219 65.2007L52.4419 61.0487V65.1287C52.4419 65.3207 52.3419 65.4647 52.1419 65.5607C51.9499 65.6567 51.7379 65.7047 51.5059 65.7047ZM58.8156 65.7047C58.5676 65.7047 58.3676 65.6487 58.2156 65.5367C58.0716 65.4247 57.9996 65.2927 57.9996 65.1407V57.4967C57.9996 57.3447 58.0716 57.2127 58.2156 57.1007C58.3676 56.9887 58.5676 56.9327 58.8156 56.9327H60.9396C61.4916 56.9327 61.9916 57.0247 62.4396 57.2087C62.8876 57.3927 63.2396 57.6927 63.4956 58.1087C63.7596 58.5247 63.8916 59.0767 63.8916 59.7647V62.8727C63.8916 63.5607 63.7596 64.1127 63.4956 64.5287C63.2396 64.9447 62.8876 65.2447 62.4396 65.4287C61.9916 65.6127 61.4916 65.7047 60.9396 65.7047H58.8156ZM59.8716 64.0727H60.9396C61.2756 64.0727 61.5396 63.9767 61.7316 63.7847C61.9236 63.5847 62.0196 63.2807 62.0196 62.8727V59.7647C62.0196 59.3567 61.9236 59.0567 61.7316 58.8647C61.5396 58.6647 61.2756 58.5647 60.9396 58.5647H59.8716V64.0727Z" fill="#110D0D"/>
<path d="M33.1762 1.37093V45.3646C33.1762 45.9688 32.8391 46.4829 32.3732 46.663C32.2548 46.7089 32.1303 46.7336 31.9997 46.7336C31.8691 46.7336 31.7446 46.7089 31.6262 46.663C31.1603 46.4829 30.8232 45.9688 30.8232 45.3646V1.37093C30.8232 0.613028 31.35 0 31.9997 0C32.6496 0 33.1762 0.613028 33.1762 1.37093Z" fill="url(#paint0_linear_1_45)"/>
<path d="M37.8818 8.407V38.3285C37.8818 39.0846 37.3551 39.6974 36.7055 39.6974C36.0558 39.6974 35.5291 39.0844 35.5291 38.3285V8.407C35.5291 7.65087 36.0558 7.03784 36.7055 7.03784C37.3553 7.03804 37.8818 7.65107 37.8818 8.407Z" fill="url(#paint1_linear_1_45)"/>
<path d="M42.5889 14.6446V32.0908C42.5889 32.847 42.0621 33.46 41.4126 33.46C40.7628 33.46 40.2361 32.847 40.2361 32.0908V14.6446C40.2361 13.8885 40.7628 13.2756 41.4126 13.2756C42.0623 13.2754 42.5889 13.8885 42.5889 14.6446Z" fill="url(#paint2_linear_1_45)"/>
<path d="M47.2945 18.0027V28.7327C47.2945 29.4888 46.7678 30.1016 46.1182 30.1016C45.4687 30.1016 44.9419 29.4886 44.9419 28.7327V18.0027C44.9419 17.2466 45.4687 16.6335 46.1182 16.6335C46.7678 16.6335 47.2945 17.2468 47.2945 18.0027Z" fill="url(#paint3_linear_1_45)"/>
<path d="M52.0001 20.7408V25.9945C52.0001 26.7506 51.4733 27.3635 50.8238 27.3635C50.174 27.3635 49.6475 26.7504 49.6475 25.9945V20.7408C49.6475 19.9847 50.1742 19.3718 50.8238 19.3718C51.4735 19.3718 52.0001 19.9849 52.0001 20.7408Z" fill="url(#paint4_linear_1_45)"/>
<path d="M28.4707 8.407V38.3285C28.4707 39.0846 27.9439 39.6974 27.2944 39.6974C26.6447 39.6974 26.1179 39.0844 26.1179 38.3285V8.407C26.1179 7.65087 26.6447 7.03784 27.2944 7.03784C27.9441 7.03804 28.4707 7.65107 28.4707 8.407Z" fill="#5800FF"/>
<path d="M23.7652 14.6446V32.0908C23.7652 32.847 23.2385 33.46 22.5889 33.46C21.9392 33.46 21.4126 32.847 21.4126 32.0908V14.6446C21.4126 13.8885 21.9394 13.2756 22.5889 13.2756C23.2385 13.2754 23.7652 13.8885 23.7652 14.6446Z" fill="#5800FF"/>
<path d="M19.0596 18.0027V28.7327C19.0596 29.4888 18.5329 30.1016 17.8833 30.1016C17.2336 30.1016 16.707 29.4886 16.707 28.7327V18.0027C16.707 17.2466 17.2338 16.6335 17.8833 16.6335C18.5329 16.6337 19.0596 17.2468 19.0596 18.0027Z" fill="#5800FF"/>
<path d="M14.3541 20.7408V25.9945C14.3541 26.7506 13.8274 27.3635 13.1763 27.3635C12.5266 27.3635 12 26.7504 12 25.9945V20.7408C12 19.9847 12.5268 19.3718 13.1763 19.3718C13.8274 19.3718 14.3541 19.9849 14.3541 20.7408Z" fill="#5800FF"/>
<defs>
<linearGradient id="paint0_linear_1_45" x1="31.9999" y1="47.2743" x2="31.9999" y2="2.87059" gradientUnits="userSpaceOnUse">
<stop stop-color="#5900FF"/>
<stop offset="1" stop-color="#0CEBEB"/>
</linearGradient>
<linearGradient id="paint1_linear_1_45" x1="36.7055" y1="40.3057" x2="36.7055" y2="8.65251" gradientUnits="userSpaceOnUse">
<stop stop-color="#5900FF"/>
<stop offset="1" stop-color="#0CEBEB"/>
</linearGradient>
<linearGradient id="paint2_linear_1_45" x1="41.4125" y1="35.5883" x2="41.4125" y2="15.8617" gradientUnits="userSpaceOnUse">
<stop stop-color="#5900FF"/>
<stop offset="1" stop-color="#0CEBEB"/>
</linearGradient>
<linearGradient id="paint3_linear_1_45" x1="46.1182" y1="32.1577" x2="46.1182" y2="19.8285" gradientUnits="userSpaceOnUse">
<stop stop-color="#5900FF"/>
<stop offset="1" stop-color="#0CEBEB"/>
</linearGradient>
<linearGradient id="paint4_linear_1_45" x1="50.8238" y1="29.0485" x2="50.8238" y2="19.8228" gradientUnits="userSpaceOnUse">
<stop stop-color="#5900FF"/>
<stop offset="1" stop-color="#0CEBEB"/>
</linearGradient>
</defs>
</svg>
