<svg width="14" height="16" viewBox="0 0 14 16" fill="none" xmlns="http://www.w3.org/2000/svg">
<path d="M5.60886 0C2.51781 0 0 2.83478 0 6.31496C0 9.79513 2.51781 12.6299 5.60886 12.6299C6.95302 12.6299 8.18747 12.0925 9.15493 11.2004L12.5038 14.9709C12.5555 15.0315 12.6174 15.0799 12.6859 15.1132C12.7544 15.1466 12.8281 15.1642 12.9027 15.165C12.9774 15.1659 13.0514 15.15 13.1205 15.1182C13.1896 15.0864 13.2523 15.0395 13.3051 14.9801C13.3579 14.9207 13.3996 14.85 13.4278 14.7722C13.456 14.6944 13.4701 14.6111 13.4694 14.5271C13.4686 14.443 13.453 14.36 13.4234 14.2829C13.3937 14.2058 13.3508 14.1361 13.2969 14.0779L9.94805 10.3074C10.7404 9.21819 11.2177 7.82834 11.2177 6.31496C11.2177 2.83478 8.6999 0 5.60886 0ZM5.60886 1.26299C8.09365 1.26299 10.0959 3.51735 10.0959 6.31496C10.0959 9.11256 8.09365 11.3669 5.60886 11.3669C3.12406 11.3669 1.12177 9.11256 1.12177 6.31496C1.12177 3.51735 3.12406 1.26299 5.60886 1.26299Z" fill="#7D7D7D"/>
</svg>
